<svg xmlns="http://www.w3.org/2000/svg" version="1.0" width="1024.000000pt" height="1024.000000pt" viewBox="0 0 1024.000000 1024.000000" preserveAspectRatio="xMidYMid meet">

<g transform="translate(0.000000,1024.000000) scale(0.100000,-0.100000)" fill="#6e6cd4" stroke="none">
<path d="M1717 7460 c-54 -14 -128 -54 -159 -87 -14 -15 -37 -50 -50 -78 l-23 -50 0 -1035 0 -1035 24 -45 c35 -68 98 -127 159 -150 51 -19 79 -20 944 -20 617 0 912 -3 957 -11 81 -14 149 -47 208 -102 57 -52 86 -97 115 -179 l22 -63 3 -945 c3 -1052 0 -996 73 -1088 27 -35 55 -56 101 -78 l64 -29 944 -3 c1063 -3 1000 -7 1089 73 30 27 59 66 73 97 l24 53 5 960 c6 1040 3 984 60 1095 31 61 115 141 180 173 30 14 84 31 120 37 41 6 380 10 911 10 950 0 899 -4 987 75 36 33 53 58 70 106 l22 64 0 1006 c0 1129 3 1073 -72 1155 -22 24 -66 56 -97 71 l-56 28 -935 -1 -935 -1 -52 -22 c-30 -13 -70 -43 -94 -68 -80 -87 -73 -1 -79 -1098 l-5 -980 -28 -69 c-60 -152 -174 -246 -332 -275 -72 -13 -1501 -15 -1648 -2 -198 18 -329 120 -394 308 -15 43 -18 145 -23 1018 l-5 970 -23 50 c-29 64 -74 110 -137 143 l-50 25 -960 3 c-565 2 -975 -1 -998 -6z" fill="#6e6cd4"/>
</g>
</svg>